<mxfile host="65bd71144e">
    <diagram id="BvMp6U5rYL6733k45aHq" name="Page-1">
        <mxGraphModel dx="519" dy="430" grid="1" gridSize="10" guides="1" tooltips="1" connect="1" arrows="1" fold="1" page="1" pageScale="1" pageWidth="827" pageHeight="1169" math="0" shadow="0">
            <root>
                <mxCell id="0"/>
                <mxCell id="1" parent="0"/>
                <mxCell id="2" value="&lt;p style=&quot;margin: 0px ; margin-top: 4px ; text-align: center ; text-decoration: underline&quot;&gt;&lt;b&gt;Posts&lt;/b&gt;&lt;/p&gt;&lt;hr&gt;&lt;p style=&quot;margin: 0px ; margin-left: 8px&quot;&gt;field1 = value1&lt;br&gt;field2 = value2&lt;br&gt;field3 = value3&lt;/p&gt;" style="verticalAlign=top;align=left;overflow=fill;fontSize=12;fontFamily=Helvetica;html=1;" vertex="1" parent="1">
                    <mxGeometry x="360" y="180" width="160" height="90" as="geometry"/>
                </mxCell>
                <mxCell id="3" value="&lt;p style=&quot;margin: 0px ; margin-top: 4px ; text-align: center ; text-decoration: underline&quot;&gt;&lt;b&gt;Users&lt;/b&gt;&lt;/p&gt;&lt;hr&gt;&lt;p style=&quot;margin: 0px ; margin-left: 8px&quot;&gt;field1 = value1&lt;br&gt;field2 = value2&lt;br&gt;field3 = value3&lt;/p&gt;" style="verticalAlign=top;align=left;overflow=fill;fontSize=12;fontFamily=Helvetica;html=1;" vertex="1" parent="1">
                    <mxGeometry x="10" y="180" width="160" height="90" as="geometry"/>
                </mxCell>
                <mxCell id="4" value="&lt;p style=&quot;margin: 0px ; margin-top: 4px ; text-align: center ; text-decoration: underline&quot;&gt;&lt;b&gt;Sessions&lt;/b&gt;&lt;/p&gt;&lt;hr&gt;&lt;p style=&quot;margin: 0px ; margin-left: 8px&quot;&gt;field1 = value1&lt;br&gt;field2 = value2&lt;br&gt;field3 = value3&lt;/p&gt;" style="verticalAlign=top;align=left;overflow=fill;fontSize=12;fontFamily=Helvetica;html=1;" vertex="1" parent="1">
                    <mxGeometry x="10" y="360" width="160" height="90" as="geometry"/>
                </mxCell>
                <mxCell id="9" value="Relation" style="endArrow=open;html=1;endSize=12;startArrow=diamondThin;startSize=14;startFill=0;edgeStyle=orthogonalEdgeStyle;entryX=0.996;entryY=0.622;entryDx=0;entryDy=0;exitX=0.004;exitY=0.644;exitDx=0;exitDy=0;entryPerimeter=0;exitPerimeter=0;" edge="1" parent="1" source="2" target="3">
                    <mxGeometry relative="1" as="geometry">
                        <mxPoint x="170" y="190" as="sourcePoint"/>
                        <mxPoint x="330" y="190" as="targetPoint"/>
                    </mxGeometry>
                </mxCell>
                <mxCell id="10" value="0..n" style="edgeLabel;resizable=0;html=1;align=left;verticalAlign=top;" connectable="0" vertex="1" parent="9">
                    <mxGeometry x="-1" relative="1" as="geometry">
                        <mxPoint x="-31" y="2" as="offset"/>
                    </mxGeometry>
                </mxCell>
                <mxCell id="11" value="1" style="edgeLabel;resizable=0;html=1;align=right;verticalAlign=top;" connectable="0" vertex="1" parent="9">
                    <mxGeometry x="1" relative="1" as="geometry">
                        <mxPoint x="20" y="4" as="offset"/>
                    </mxGeometry>
                </mxCell>
                <mxCell id="12" value="Relation" style="endArrow=open;html=1;endSize=12;startArrow=diamondThin;startSize=14;startFill=0;edgeStyle=orthogonalEdgeStyle;" edge="1" parent="1">
                    <mxGeometry relative="1" as="geometry">
                        <mxPoint x="170" y="240" as="sourcePoint"/>
                        <mxPoint x="330" y="240" as="targetPoint"/>
                    </mxGeometry>
                </mxCell>
                <mxCell id="13" value="0..n" style="edgeLabel;resizable=0;html=1;align=left;verticalAlign=top;" connectable="0" vertex="1" parent="12">
                    <mxGeometry x="-1" relative="1" as="geometry"/>
                </mxCell>
                <mxCell id="14" value="1" style="edgeLabel;resizable=0;html=1;align=right;verticalAlign=top;" connectable="0" vertex="1" parent="12">
                    <mxGeometry x="1" relative="1" as="geometry"/>
                </mxCell>
                <mxCell id="15" value="1" style="endArrow=open;html=1;endSize=12;startArrow=diamondThin;startSize=14;startFill=0;edgeStyle=orthogonalEdgeStyle;align=left;verticalAlign=bottom;" edge="1" parent="1">
                    <mxGeometry x="-1" y="3" relative="1" as="geometry">
                        <mxPoint x="170" y="240" as="sourcePoint"/>
                        <mxPoint x="330" y="240" as="targetPoint"/>
                    </mxGeometry>
                </mxCell>
                <mxCell id="17" style="edgeStyle=none;html=1;exitX=0.5;exitY=1;exitDx=0;exitDy=0;entryX=1;entryY=0.5;entryDx=0;entryDy=0;" edge="1" parent="1" source="2" target="2">
                    <mxGeometry relative="1" as="geometry">
                        <Array as="points">
                            <mxPoint x="490" y="290"/>
                            <mxPoint x="570" y="250"/>
                        </Array>
                    </mxGeometry>
                </mxCell>
            </root>
        </mxGraphModel>
    </diagram>
</mxfile>